<svg width="80" height="80" viewBox="0 0 80 80" fill="none" xmlns="http://www.w3.org/2000/svg">
<path d="M58.3332 21.6667H58.3665M23.3332 6.66672H56.6665C65.8713 6.66672 73.3332 14.1286 73.3332 23.3334V56.6667C73.3332 65.8715 65.8713 73.3334 56.6665 73.3334H23.3332C14.1284 73.3334 6.6665 65.8715 6.6665 56.6667V23.3334C6.6665 14.1286 14.1284 6.66672 23.3332 6.66672ZM53.3332 37.9001C53.7445 40.6742 53.2707 43.5074 51.979 45.9968C50.6874 48.4861 48.6437 50.5048 46.1386 51.7656C43.6335 53.0265 40.7947 53.4654 38.0258 53.0198C35.2569 52.5743 32.699 51.267 30.716 49.2839C28.7329 47.3009 27.4256 44.743 26.9801 41.9741C26.5345 39.2052 26.9734 36.3664 28.2343 33.8613C29.4951 31.3562 31.5138 29.3125 34.0031 28.0209C36.4925 26.7292 39.3257 26.2553 42.0998 26.6667C44.9296 27.0863 47.5493 28.4049 49.5722 30.4277C51.595 32.4506 52.9136 35.0703 53.3332 37.9001Z" stroke="black" stroke-width="4" stroke-linecap="round" stroke-linejoin="round"/>
</svg>
