<svg width="80" height="80" viewBox="0 0 80 80" fill="none" xmlns="http://www.w3.org/2000/svg">
<path d="M76.6668 10.0001C73.4748 12.2517 69.9405 13.9738 66.2002 15.1001C64.1926 12.7918 61.5246 11.1557 58.5569 10.4132C55.5893 9.67061 52.4651 9.85739 49.6071 10.9482C46.749 12.0391 44.295 13.9814 42.5768 16.5125C40.8586 19.0435 39.9592 22.0412 40.0002 25.1001V28.4334C34.1423 28.5853 28.3377 27.2861 23.1035 24.6516C17.8693 22.017 13.3679 18.1289 10.0002 13.3334C10.0002 13.3334 -3.33317 43.3334 26.6668 56.6667C19.8019 61.3266 11.624 63.6632 3.3335 63.3334C33.3335 80.0001 70.0002 63.3334 70.0002 25.0001C69.9971 24.0716 69.9078 23.1454 69.7335 22.2334C73.1355 18.8784 75.5362 14.6424 76.6668 10.0001Z" stroke="black" stroke-width="4" stroke-linecap="round" stroke-linejoin="round"/>
</svg>
